<mxfile host="app.diagrams.net" modified="2024-03-15T09:17:39.035Z" agent="Mozilla/5.0 (Windows NT 10.0; Win64; x64) AppleWebKit/537.36 (KHTML, like Gecko) Chrome/122.0.0.0 Safari/537.36" etag="VqsJm9AVB9ui1yJ5W64O" version="24.0.6" type="device">
  <diagram name="Page-1" id="C0pB-2nuhrxpLYxTiZ_2">
    <mxGraphModel dx="3214" dy="1498" grid="1" gridSize="10" guides="1" tooltips="1" connect="1" arrows="1" fold="1" page="1" pageScale="1" pageWidth="850" pageHeight="1100" math="0" shadow="0">
      <root>
        <mxCell id="0" />
        <mxCell id="1" parent="0" />
        <mxCell id="KAI_ywYx_2HNOmHF93Lu-144" style="edgeStyle=orthogonalEdgeStyle;rounded=0;orthogonalLoop=1;jettySize=auto;html=1;entryX=0;entryY=0.5;entryDx=0;entryDy=0;" parent="1" source="KAI_ywYx_2HNOmHF93Lu-1" target="KAI_ywYx_2HNOmHF93Lu-4" edge="1">
          <mxGeometry relative="1" as="geometry">
            <Array as="points">
              <mxPoint x="-610" y="100" />
              <mxPoint x="-610" y="100" />
            </Array>
          </mxGeometry>
        </mxCell>
        <mxCell id="KAI_ywYx_2HNOmHF93Lu-1" value="&lt;font style=&quot;font-size: 14px;&quot;&gt;START&lt;/font&gt;" style="strokeWidth=2;html=1;shape=mxgraph.flowchart.start_2;whiteSpace=wrap;" parent="1" vertex="1">
          <mxGeometry x="-740" y="40" width="100" height="100" as="geometry" />
        </mxCell>
        <mxCell id="KAI_ywYx_2HNOmHF93Lu-2" value="DATABASE" style="strokeWidth=2;html=1;shape=mxgraph.flowchart.database;whiteSpace=wrap;" parent="1" vertex="1">
          <mxGeometry x="-90" y="20" width="80" height="80" as="geometry" />
        </mxCell>
        <mxCell id="KAI_ywYx_2HNOmHF93Lu-3" value="&lt;div&gt;Progress Flow&lt;/div&gt;&lt;div&gt;&lt;br&gt;&lt;/div&gt;&lt;div&gt;Group 5: Customer&lt;/div&gt;&lt;div&gt;&lt;br&gt;&lt;/div&gt;&lt;div&gt;&lt;br&gt;&lt;/div&gt;&lt;div&gt;&lt;br&gt;&lt;/div&gt;" style="strokeWidth=2;html=1;shape=mxgraph.flowchart.annotation_1;align=left;pointerEvents=1;" parent="1" vertex="1">
          <mxGeometry x="-450" y="25" width="160" height="100" as="geometry" />
        </mxCell>
        <mxCell id="KAI_ywYx_2HNOmHF93Lu-4" value="Website / HTML" style="rounded=1;whiteSpace=wrap;html=1;absoluteArcSize=1;arcSize=14;strokeWidth=2;" parent="1" vertex="1">
          <mxGeometry x="-600" y="80" width="100" height="40" as="geometry" />
        </mxCell>
        <mxCell id="KAI_ywYx_2HNOmHF93Lu-6" value="CREATE ACCOUNT" style="rounded=1;whiteSpace=wrap;html=1;absoluteArcSize=1;arcSize=14;strokeWidth=2;" parent="1" vertex="1">
          <mxGeometry x="-400" y="330" width="100" height="40" as="geometry" />
        </mxCell>
        <mxCell id="KAI_ywYx_2HNOmHF93Lu-81" value="" style="edgeStyle=orthogonalEdgeStyle;rounded=0;orthogonalLoop=1;jettySize=auto;html=1;" parent="1" source="KAI_ywYx_2HNOmHF93Lu-8" target="KAI_ywYx_2HNOmHF93Lu-80" edge="1">
          <mxGeometry relative="1" as="geometry">
            <Array as="points">
              <mxPoint x="-480" y="400" />
              <mxPoint x="-480" y="400" />
            </Array>
          </mxGeometry>
        </mxCell>
        <mxCell id="KAI_ywYx_2HNOmHF93Lu-8" value="LOGIN" style="rounded=1;whiteSpace=wrap;html=1;absoluteArcSize=1;arcSize=14;strokeWidth=2;" parent="1" vertex="1">
          <mxGeometry x="-530" y="330" width="100" height="40" as="geometry" />
        </mxCell>
        <mxCell id="KAI_ywYx_2HNOmHF93Lu-56" style="edgeStyle=orthogonalEdgeStyle;rounded=0;orthogonalLoop=1;jettySize=auto;html=1;entryX=0.499;entryY=0.035;entryDx=0;entryDy=0;entryPerimeter=0;" parent="1" source="KAI_ywYx_2HNOmHF93Lu-50" target="KAI_ywYx_2HNOmHF93Lu-65" edge="1">
          <mxGeometry relative="1" as="geometry">
            <mxPoint x="-112.5" y="359.9999999999999" as="targetPoint" />
          </mxGeometry>
        </mxCell>
        <mxCell id="KAI_ywYx_2HNOmHF93Lu-50" value="Check&lt;div&gt;&lt;span style=&quot;background-color: initial;&quot;&gt;if valid for the dabase&lt;/span&gt;&lt;br&gt;&lt;/div&gt;" style="strokeWidth=2;html=1;shape=mxgraph.flowchart.decision;whiteSpace=wrap;" parent="1" vertex="1">
          <mxGeometry x="-162.5" y="222.5" width="100" height="95" as="geometry" />
        </mxCell>
        <mxCell id="KAI_ywYx_2HNOmHF93Lu-58" value="DB" style="strokeWidth=2;html=1;shape=mxgraph.flowchart.start_2;whiteSpace=wrap;fillColor=#dae8fc;strokeColor=#6c8ebf;" parent="1" vertex="1">
          <mxGeometry x="-62.5" y="130" width="40" height="40" as="geometry" />
        </mxCell>
        <mxCell id="KAI_ywYx_2HNOmHF93Lu-59" style="edgeStyle=orthogonalEdgeStyle;rounded=0;orthogonalLoop=1;jettySize=auto;html=1;entryX=-0.002;entryY=0.534;entryDx=0;entryDy=0;entryPerimeter=0;" parent="1" source="KAI_ywYx_2HNOmHF93Lu-50" target="KAI_ywYx_2HNOmHF93Lu-58" edge="1">
          <mxGeometry relative="1" as="geometry" />
        </mxCell>
        <mxCell id="KAI_ywYx_2HNOmHF93Lu-60" value="Store and Transfer&amp;nbsp;&lt;div&gt;data to connector&lt;/div&gt;" style="edgeLabel;html=1;align=center;verticalAlign=middle;resizable=0;points=[];" parent="KAI_ywYx_2HNOmHF93Lu-59" vertex="1" connectable="0">
          <mxGeometry x="-0.4656" y="2" relative="1" as="geometry">
            <mxPoint as="offset" />
          </mxGeometry>
        </mxCell>
        <mxCell id="KAI_ywYx_2HNOmHF93Lu-62" value="DB" style="strokeWidth=2;html=1;shape=mxgraph.flowchart.start_2;whiteSpace=wrap;fillColor=#dae8fc;strokeColor=#6c8ebf;" parent="1" vertex="1">
          <mxGeometry x="-180" y="40" width="40" height="40" as="geometry" />
        </mxCell>
        <mxCell id="KAI_ywYx_2HNOmHF93Lu-63" style="edgeStyle=orthogonalEdgeStyle;rounded=0;orthogonalLoop=1;jettySize=auto;html=1;entryX=0;entryY=0.5;entryDx=0;entryDy=0;entryPerimeter=0;" parent="1" source="KAI_ywYx_2HNOmHF93Lu-62" target="KAI_ywYx_2HNOmHF93Lu-2" edge="1">
          <mxGeometry relative="1" as="geometry" />
        </mxCell>
        <mxCell id="KAI_ywYx_2HNOmHF93Lu-64" style="edgeStyle=orthogonalEdgeStyle;rounded=0;orthogonalLoop=1;jettySize=auto;html=1;entryX=1;entryY=0.5;entryDx=0;entryDy=0;entryPerimeter=0;" parent="1" source="KAI_ywYx_2HNOmHF93Lu-2" target="KAI_ywYx_2HNOmHF93Lu-62" edge="1">
          <mxGeometry relative="1" as="geometry" />
        </mxCell>
        <mxCell id="KAI_ywYx_2HNOmHF93Lu-79" style="edgeStyle=orthogonalEdgeStyle;rounded=0;orthogonalLoop=1;jettySize=auto;html=1;entryX=0.5;entryY=1;entryDx=0;entryDy=0;" parent="1" source="KAI_ywYx_2HNOmHF93Lu-65" target="KAI_ywYx_2HNOmHF93Lu-6" edge="1">
          <mxGeometry relative="1" as="geometry">
            <mxPoint x="-210" y="430" as="targetPoint" />
            <Array as="points">
              <mxPoint x="-110" y="430" />
              <mxPoint x="-350" y="430" />
            </Array>
          </mxGeometry>
        </mxCell>
        <mxCell id="KAI_ywYx_2HNOmHF93Lu-65" value="Display Errors" style="strokeWidth=2;html=1;shape=mxgraph.flowchart.display;whiteSpace=wrap;" parent="1" vertex="1">
          <mxGeometry x="-165" y="360" width="105" height="30" as="geometry" />
        </mxCell>
        <mxCell id="KAI_ywYx_2HNOmHF93Lu-76" style="edgeStyle=orthogonalEdgeStyle;rounded=0;orthogonalLoop=1;jettySize=auto;html=1;entryX=0;entryY=0.5;entryDx=0;entryDy=0;entryPerimeter=0;" parent="1" source="KAI_ywYx_2HNOmHF93Lu-72" target="KAI_ywYx_2HNOmHF93Lu-65" edge="1">
          <mxGeometry relative="1" as="geometry">
            <mxPoint x="-225" y="370" as="targetPoint" />
            <Array as="points">
              <mxPoint x="-225" y="375" />
            </Array>
          </mxGeometry>
        </mxCell>
        <mxCell id="KAI_ywYx_2HNOmHF93Lu-77" value="check If required&amp;nbsp;&lt;div&gt;input are empty&lt;/div&gt;" style="edgeLabel;html=1;align=center;verticalAlign=middle;resizable=0;points=[];" parent="KAI_ywYx_2HNOmHF93Lu-76" vertex="1" connectable="0">
          <mxGeometry x="-0.5868" relative="1" as="geometry">
            <mxPoint as="offset" />
          </mxGeometry>
        </mxCell>
        <mxCell id="KAI_ywYx_2HNOmHF93Lu-72" value="Check Required" style="strokeWidth=2;html=1;shape=mxgraph.flowchart.decision;whiteSpace=wrap;" parent="1" vertex="1">
          <mxGeometry x="-260" y="235" width="70" height="70" as="geometry" />
        </mxCell>
        <mxCell id="KAI_ywYx_2HNOmHF93Lu-73" style="edgeStyle=orthogonalEdgeStyle;rounded=0;orthogonalLoop=1;jettySize=auto;html=1;entryX=0;entryY=0.5;entryDx=0;entryDy=0;entryPerimeter=0;" parent="1" source="KAI_ywYx_2HNOmHF93Lu-72" target="KAI_ywYx_2HNOmHF93Lu-50" edge="1">
          <mxGeometry relative="1" as="geometry" />
        </mxCell>
        <mxCell id="KAI_ywYx_2HNOmHF93Lu-74" style="edgeStyle=orthogonalEdgeStyle;rounded=0;orthogonalLoop=1;jettySize=auto;html=1;entryX=0;entryY=0.5;entryDx=0;entryDy=0;entryPerimeter=0;" parent="1" source="KAI_ywYx_2HNOmHF93Lu-6" target="KAI_ywYx_2HNOmHF93Lu-72" edge="1">
          <mxGeometry relative="1" as="geometry" />
        </mxCell>
        <mxCell id="KAI_ywYx_2HNOmHF93Lu-88" value="" style="edgeStyle=orthogonalEdgeStyle;rounded=0;orthogonalLoop=1;jettySize=auto;html=1;" parent="1" source="KAI_ywYx_2HNOmHF93Lu-80" target="KAI_ywYx_2HNOmHF93Lu-85" edge="1">
          <mxGeometry relative="1" as="geometry" />
        </mxCell>
        <mxCell id="KAI_ywYx_2HNOmHF93Lu-91" value="Information is incorrect" style="edgeLabel;html=1;align=center;verticalAlign=middle;resizable=0;points=[];" parent="KAI_ywYx_2HNOmHF93Lu-88" vertex="1" connectable="0">
          <mxGeometry x="-0.5997" relative="1" as="geometry">
            <mxPoint as="offset" />
          </mxGeometry>
        </mxCell>
        <mxCell id="KAI_ywYx_2HNOmHF93Lu-129" value="" style="edgeStyle=orthogonalEdgeStyle;rounded=0;orthogonalLoop=1;jettySize=auto;html=1;entryX=0.5;entryY=0;entryDx=0;entryDy=0;" parent="1" source="KAI_ywYx_2HNOmHF93Lu-80" target="KAI_ywYx_2HNOmHF93Lu-84" edge="1">
          <mxGeometry relative="1" as="geometry">
            <mxPoint x="-350" y="542.5217391304348" as="targetPoint" />
          </mxGeometry>
        </mxCell>
        <mxCell id="KAI_ywYx_2HNOmHF93Lu-130" value="Information is&lt;div&gt;correct&lt;/div&gt;" style="edgeLabel;html=1;align=center;verticalAlign=middle;resizable=0;points=[];" parent="KAI_ywYx_2HNOmHF93Lu-129" vertex="1" connectable="0">
          <mxGeometry x="-0.0841" y="-1" relative="1" as="geometry">
            <mxPoint as="offset" />
          </mxGeometry>
        </mxCell>
        <mxCell id="KAI_ywYx_2HNOmHF93Lu-80" value="Check&lt;div&gt;&lt;span style=&quot;background-color: initial;&quot;&gt;if matching the dabase&lt;/span&gt;&lt;br&gt;&lt;/div&gt;" style="strokeWidth=2;html=1;shape=mxgraph.flowchart.decision;whiteSpace=wrap;" parent="1" vertex="1">
          <mxGeometry x="-530" y="420" width="100" height="95" as="geometry" />
        </mxCell>
        <mxCell id="KAI_ywYx_2HNOmHF93Lu-82" value="&lt;font style=&quot;font-size: 11px;&quot;&gt;Example:&lt;/font&gt;&lt;div style=&quot;font-size: 11px;&quot;&gt;&lt;font style=&quot;font-size: 11px;&quot;&gt;Maxminum input is 12 but is 13&lt;/font&gt;&lt;/div&gt;" style="strokeWidth=2;html=1;shape=mxgraph.flowchart.annotation_1;align=left;pointerEvents=1;" parent="1" vertex="1">
          <mxGeometry x="-60" y="222.5" width="172.5" height="30" as="geometry" />
        </mxCell>
        <mxCell id="KAI_ywYx_2HNOmHF93Lu-84" value="Viewing details of the account / Directly in Profile Account" style="rounded=1;whiteSpace=wrap;html=1;absoluteArcSize=1;arcSize=14;strokeWidth=2;" parent="1" vertex="1">
          <mxGeometry x="-360" y="510" width="100" height="100" as="geometry" />
        </mxCell>
        <mxCell id="KAI_ywYx_2HNOmHF93Lu-85" value="Reset Password: Entering the email password for resseting" style="rounded=1;whiteSpace=wrap;html=1;absoluteArcSize=1;arcSize=14;strokeWidth=2;" parent="1" vertex="1">
          <mxGeometry x="-570" y="590" width="100" height="100" as="geometry" />
        </mxCell>
        <mxCell id="KAI_ywYx_2HNOmHF93Lu-96" value="" style="edgeStyle=orthogonalEdgeStyle;rounded=0;orthogonalLoop=1;jettySize=auto;html=1;" parent="1" source="KAI_ywYx_2HNOmHF93Lu-92" target="KAI_ywYx_2HNOmHF93Lu-95" edge="1">
          <mxGeometry relative="1" as="geometry">
            <Array as="points">
              <mxPoint x="-470" y="830" />
              <mxPoint x="-470" y="830" />
            </Array>
          </mxGeometry>
        </mxCell>
        <mxCell id="KAI_ywYx_2HNOmHF93Lu-99" style="edgeStyle=orthogonalEdgeStyle;rounded=0;orthogonalLoop=1;jettySize=auto;html=1;entryX=0;entryY=0.5;entryDx=0;entryDy=0;" parent="1" source="KAI_ywYx_2HNOmHF93Lu-92" target="KAI_ywYx_2HNOmHF93Lu-98" edge="1">
          <mxGeometry relative="1" as="geometry">
            <Array as="points">
              <mxPoint x="-520" y="980" />
            </Array>
          </mxGeometry>
        </mxCell>
        <mxCell id="KAI_ywYx_2HNOmHF93Lu-92" value="Is email&lt;div&gt;match&lt;div&gt;in database&lt;/div&gt;&lt;/div&gt;" style="strokeWidth=2;html=1;shape=mxgraph.flowchart.decision;whiteSpace=wrap;" parent="1" vertex="1">
          <mxGeometry x="-570" y="780" width="100" height="95" as="geometry" />
        </mxCell>
        <mxCell id="KAI_ywYx_2HNOmHF93Lu-93" style="edgeStyle=orthogonalEdgeStyle;rounded=0;orthogonalLoop=1;jettySize=auto;html=1;entryX=0.5;entryY=0;entryDx=0;entryDy=0;entryPerimeter=0;" parent="1" source="KAI_ywYx_2HNOmHF93Lu-85" target="KAI_ywYx_2HNOmHF93Lu-92" edge="1">
          <mxGeometry relative="1" as="geometry" />
        </mxCell>
        <mxCell id="KAI_ywYx_2HNOmHF93Lu-105" style="edgeStyle=orthogonalEdgeStyle;rounded=0;orthogonalLoop=1;jettySize=auto;html=1;" parent="1" source="KAI_ywYx_2HNOmHF93Lu-95" edge="1">
          <mxGeometry relative="1" as="geometry">
            <mxPoint x="-470" y="827.5" as="targetPoint" />
          </mxGeometry>
        </mxCell>
        <mxCell id="KAI_ywYx_2HNOmHF93Lu-117" style="edgeStyle=orthogonalEdgeStyle;rounded=0;orthogonalLoop=1;jettySize=auto;html=1;" parent="1" source="KAI_ywYx_2HNOmHF93Lu-95" edge="1">
          <mxGeometry relative="1" as="geometry">
            <mxPoint x="-190" y="827.5" as="targetPoint" />
          </mxGeometry>
        </mxCell>
        <mxCell id="KAI_ywYx_2HNOmHF93Lu-95" value="Re-Enter email address again" style="rounded=1;whiteSpace=wrap;html=1;absoluteArcSize=1;arcSize=14;strokeWidth=2;" parent="1" vertex="1">
          <mxGeometry x="-390" y="802.5" width="100" height="50" as="geometry" />
        </mxCell>
        <mxCell id="KAI_ywYx_2HNOmHF93Lu-116" style="edgeStyle=orthogonalEdgeStyle;rounded=0;orthogonalLoop=1;jettySize=auto;html=1;entryX=0;entryY=0.5;entryDx=0;entryDy=0;" parent="1" source="KAI_ywYx_2HNOmHF93Lu-98" target="KAI_ywYx_2HNOmHF93Lu-8" edge="1">
          <mxGeometry relative="1" as="geometry">
            <Array as="points">
              <mxPoint x="-630" y="980" />
              <mxPoint x="-630" y="350" />
            </Array>
          </mxGeometry>
        </mxCell>
        <mxCell id="KAI_ywYx_2HNOmHF93Lu-98" value="Enter new password" style="rounded=1;whiteSpace=wrap;html=1;absoluteArcSize=1;arcSize=14;strokeWidth=2;" parent="1" vertex="1">
          <mxGeometry x="-550" y="960" width="100" height="40" as="geometry" />
        </mxCell>
        <mxCell id="KAI_ywYx_2HNOmHF93Lu-102" value="&lt;span style=&quot;font-size: 11px; background-color: rgb(255, 255, 255);&quot;&gt;Email match in database&lt;/span&gt;" style="text;html=1;align=center;verticalAlign=middle;resizable=0;points=[];autosize=1;strokeColor=none;fillColor=none;" parent="1" vertex="1">
          <mxGeometry x="-590" y="900" width="140" height="30" as="geometry" />
        </mxCell>
        <mxCell id="KAI_ywYx_2HNOmHF93Lu-103" value="Email does&lt;div&gt;not match&lt;/div&gt;" style="edgeLabel;html=1;align=center;verticalAlign=middle;resizable=0;points=[];" parent="1" vertex="1" connectable="0">
          <mxGeometry x="-245.00142857142862" y="830.0014285714287" as="geometry">
            <mxPoint x="-3" y="-4" as="offset" />
          </mxGeometry>
        </mxCell>
        <mxCell id="KAI_ywYx_2HNOmHF93Lu-109" value="DB" style="strokeWidth=2;html=1;shape=mxgraph.flowchart.start_2;whiteSpace=wrap;fillColor=#dae8fc;strokeColor=#6c8ebf;" parent="1" vertex="1">
          <mxGeometry x="-220" y="960" width="40" height="40" as="geometry" />
        </mxCell>
        <mxCell id="KAI_ywYx_2HNOmHF93Lu-111" style="edgeStyle=orthogonalEdgeStyle;rounded=0;orthogonalLoop=1;jettySize=auto;html=1;entryX=0;entryY=0.5;entryDx=0;entryDy=0;entryPerimeter=0;" parent="1" source="KAI_ywYx_2HNOmHF93Lu-113" target="KAI_ywYx_2HNOmHF93Lu-109" edge="1">
          <mxGeometry relative="1" as="geometry">
            <mxPoint x="-350" y="980" as="targetPoint" />
          </mxGeometry>
        </mxCell>
        <mxCell id="KAI_ywYx_2HNOmHF93Lu-118" value="&lt;span style=&quot;color: rgb(0, 0, 0); font-family: Helvetica; font-size: 11px; font-style: normal; font-variant-ligatures: normal; font-variant-caps: normal; font-weight: 400; letter-spacing: normal; orphans: 2; text-align: center; text-indent: 0px; text-transform: none; widows: 2; word-spacing: 0px; -webkit-text-stroke-width: 0px; white-space: nowrap; background-color: rgb(255, 255, 255); text-decoration-thickness: initial; text-decoration-style: initial; text-decoration-color: initial; display: inline !important; float: none;&quot;&gt;Email does&lt;/span&gt;&lt;div&gt;&lt;span style=&quot;color: rgb(0, 0, 0); font-family: Helvetica; font-size: 11px; font-style: normal; font-variant-ligatures: normal; font-variant-caps: normal; font-weight: 400; letter-spacing: normal; orphans: 2; text-align: center; text-indent: 0px; text-transform: none; widows: 2; word-spacing: 0px; -webkit-text-stroke-width: 0px; white-space: nowrap; background-color: rgb(255, 255, 255); text-decoration-thickness: initial; text-decoration-style: initial; text-decoration-color: initial; display: inline !important; float: none;&quot;&gt;&amp;nbsp;not match&lt;/span&gt;&lt;/div&gt;" style="text;whiteSpace=wrap;html=1;" parent="1" vertex="1">
          <mxGeometry x="-460" y="802.5" width="60" height="40" as="geometry" />
        </mxCell>
        <mxCell id="KAI_ywYx_2HNOmHF93Lu-122" style="edgeStyle=orthogonalEdgeStyle;rounded=0;orthogonalLoop=1;jettySize=auto;html=1;entryX=1;entryY=0.5;entryDx=0;entryDy=0;entryPerimeter=0;" parent="1" source="KAI_ywYx_2HNOmHF93Lu-121" target="KAI_ywYx_2HNOmHF93Lu-109" edge="1">
          <mxGeometry relative="1" as="geometry">
            <mxPoint x="-70" y="980" as="targetPoint" />
            <Array as="points">
              <mxPoint x="-70" y="828" />
              <mxPoint x="-70" y="980" />
            </Array>
          </mxGeometry>
        </mxCell>
        <mxCell id="KAI_ywYx_2HNOmHF93Lu-126" value="Store new data&amp;nbsp;&lt;div&gt;from database&lt;/div&gt;" style="edgeLabel;html=1;align=center;verticalAlign=middle;resizable=0;points=[];" parent="KAI_ywYx_2HNOmHF93Lu-122" vertex="1" connectable="0">
          <mxGeometry x="-0.1691" y="1" relative="1" as="geometry">
            <mxPoint as="offset" />
          </mxGeometry>
        </mxCell>
        <mxCell id="KAI_ywYx_2HNOmHF93Lu-121" value="Registration Form&lt;div&gt;(Sign-In)&lt;/div&gt;" style="verticalLabelPosition=bottom;verticalAlign=top;html=1;shape=process;whiteSpace=wrap;rounded=1;size=0.14;arcSize=6;glass=0;" parent="1" vertex="1">
          <mxGeometry x="-190" y="798" width="100" height="60" as="geometry" />
        </mxCell>
        <mxCell id="KAI_ywYx_2HNOmHF93Lu-123" value="" style="edgeStyle=orthogonalEdgeStyle;rounded=0;orthogonalLoop=1;jettySize=auto;html=1;entryX=0;entryY=0.5;entryDx=0;entryDy=0;entryPerimeter=0;" parent="1" source="KAI_ywYx_2HNOmHF93Lu-98" target="KAI_ywYx_2HNOmHF93Lu-113" edge="1">
          <mxGeometry relative="1" as="geometry">
            <mxPoint x="-450" y="980" as="sourcePoint" />
            <mxPoint x="-220" y="980" as="targetPoint" />
          </mxGeometry>
        </mxCell>
        <mxCell id="KAI_ywYx_2HNOmHF93Lu-113" value="Transfer new data into&amp;nbsp;&lt;div&gt;database for override&lt;/div&gt;" style="text;html=1;align=center;verticalAlign=middle;resizable=0;points=[];autosize=1;strokeColor=none;fillColor=none;" parent="1" vertex="1">
          <mxGeometry x="-430" y="960" width="150" height="40" as="geometry" />
        </mxCell>
        <mxCell id="KAI_ywYx_2HNOmHF93Lu-139" value="Member List" style="strokeWidth=2;html=1;shape=mxgraph.flowchart.display;whiteSpace=wrap;" parent="1" vertex="1">
          <mxGeometry x="-200" y="510" width="100" height="60" as="geometry" />
        </mxCell>
        <mxCell id="KAI_ywYx_2HNOmHF93Lu-157" style="edgeStyle=orthogonalEdgeStyle;rounded=0;orthogonalLoop=1;jettySize=auto;html=1;" parent="1" source="KAI_ywYx_2HNOmHF93Lu-150" target="KAI_ywYx_2HNOmHF93Lu-151" edge="1">
          <mxGeometry relative="1" as="geometry" />
        </mxCell>
        <mxCell id="KAI_ywYx_2HNOmHF93Lu-150" value="Home Page" style="rounded=1;whiteSpace=wrap;html=1;absoluteArcSize=1;arcSize=14;strokeWidth=2;" parent="1" vertex="1">
          <mxGeometry x="-600" y="150" width="100" height="40" as="geometry" />
        </mxCell>
        <mxCell id="KAI_ywYx_2HNOmHF93Lu-151" value="Login Portal" style="strokeWidth=2;html=1;shape=mxgraph.flowchart.display;whiteSpace=wrap;" parent="1" vertex="1">
          <mxGeometry x="-600" y="222.5" width="100" height="60" as="geometry" />
        </mxCell>
        <mxCell id="KAI_ywYx_2HNOmHF93Lu-159" style="edgeStyle=orthogonalEdgeStyle;rounded=0;orthogonalLoop=1;jettySize=auto;html=1;entryX=0.5;entryY=0;entryDx=0;entryDy=0;" parent="1" source="KAI_ywYx_2HNOmHF93Lu-152" target="KAI_ywYx_2HNOmHF93Lu-6" edge="1">
          <mxGeometry relative="1" as="geometry" />
        </mxCell>
        <mxCell id="KAI_ywYx_2HNOmHF93Lu-152" value="Sign-Up" style="strokeWidth=2;html=1;shape=mxgraph.flowchart.display;whiteSpace=wrap;" parent="1" vertex="1">
          <mxGeometry x="-450" y="222.5" width="100" height="60" as="geometry" />
        </mxCell>
        <mxCell id="KAI_ywYx_2HNOmHF93Lu-156" value="" style="edgeStyle=none;orthogonalLoop=1;jettySize=auto;html=1;rounded=0;entryX=0.5;entryY=0;entryDx=0;entryDy=0;exitX=0.5;exitY=1;exitDx=0;exitDy=0;" parent="1" source="KAI_ywYx_2HNOmHF93Lu-4" target="KAI_ywYx_2HNOmHF93Lu-150" edge="1">
          <mxGeometry width="100" relative="1" as="geometry">
            <mxPoint x="-460" y="130" as="sourcePoint" />
            <mxPoint x="-360" y="130" as="targetPoint" />
            <Array as="points" />
          </mxGeometry>
        </mxCell>
        <mxCell id="KAI_ywYx_2HNOmHF93Lu-162" style="edgeStyle=orthogonalEdgeStyle;rounded=0;orthogonalLoop=1;jettySize=auto;html=1;entryX=0.532;entryY=-0.061;entryDx=0;entryDy=0;entryPerimeter=0;" parent="1" source="KAI_ywYx_2HNOmHF93Lu-151" target="KAI_ywYx_2HNOmHF93Lu-8" edge="1">
          <mxGeometry relative="1" as="geometry" />
        </mxCell>
        <mxCell id="GA0vuRg266qr1wsVSSld-10" style="edgeStyle=orthogonalEdgeStyle;rounded=0;orthogonalLoop=1;jettySize=auto;html=1;" edge="1" parent="1" source="KAI_ywYx_2HNOmHF93Lu-163" target="GA0vuRg266qr1wsVSSld-7">
          <mxGeometry relative="1" as="geometry" />
        </mxCell>
        <mxCell id="KAI_ywYx_2HNOmHF93Lu-163" value="About" style="strokeWidth=2;html=1;shape=mxgraph.flowchart.display;whiteSpace=wrap;" parent="1" vertex="1">
          <mxGeometry x="-740" y="222.5" width="100" height="60" as="geometry" />
        </mxCell>
        <mxCell id="KAI_ywYx_2HNOmHF93Lu-165" value="" style="edgeStyle=none;orthogonalLoop=1;jettySize=auto;html=1;rounded=0;entryX=1;entryY=0.5;entryDx=0;entryDy=0;entryPerimeter=0;exitX=0.25;exitY=1;exitDx=0;exitDy=0;" parent="1" source="KAI_ywYx_2HNOmHF93Lu-150" target="KAI_ywYx_2HNOmHF93Lu-163" edge="1">
          <mxGeometry width="100" relative="1" as="geometry">
            <mxPoint x="-680" y="170" as="sourcePoint" />
            <mxPoint x="-580" y="170" as="targetPoint" />
            <Array as="points">
              <mxPoint x="-610" y="200" />
            </Array>
          </mxGeometry>
        </mxCell>
        <mxCell id="KAI_ywYx_2HNOmHF93Lu-169" value="" style="edgeStyle=none;orthogonalLoop=1;jettySize=auto;html=1;rounded=0;exitX=0.728;exitY=1.006;exitDx=0;exitDy=0;exitPerimeter=0;entryX=-0.005;entryY=0.531;entryDx=0;entryDy=0;entryPerimeter=0;" parent="1" source="KAI_ywYx_2HNOmHF93Lu-150" target="KAI_ywYx_2HNOmHF93Lu-152" edge="1">
          <mxGeometry width="100" relative="1" as="geometry">
            <mxPoint x="-550" y="190" as="sourcePoint" />
            <mxPoint x="-450" y="190" as="targetPoint" />
            <Array as="points" />
          </mxGeometry>
        </mxCell>
        <mxCell id="GA0vuRg266qr1wsVSSld-1" style="edgeStyle=orthogonalEdgeStyle;rounded=0;orthogonalLoop=1;jettySize=auto;html=1;entryX=0;entryY=0.5;entryDx=0;entryDy=0;entryPerimeter=0;" edge="1" parent="1" source="KAI_ywYx_2HNOmHF93Lu-84" target="KAI_ywYx_2HNOmHF93Lu-139">
          <mxGeometry relative="1" as="geometry" />
        </mxCell>
        <mxCell id="GA0vuRg266qr1wsVSSld-17" value="" style="edgeStyle=orthogonalEdgeStyle;rounded=0;orthogonalLoop=1;jettySize=auto;html=1;" edge="1" parent="1" source="GA0vuRg266qr1wsVSSld-2" target="GA0vuRg266qr1wsVSSld-14">
          <mxGeometry relative="1" as="geometry" />
        </mxCell>
        <mxCell id="GA0vuRg266qr1wsVSSld-2" value="Log Out" style="strokeWidth=2;html=1;shape=mxgraph.flowchart.display;whiteSpace=wrap;" vertex="1" parent="1">
          <mxGeometry x="-200" y="590" width="100" height="60" as="geometry" />
        </mxCell>
        <mxCell id="GA0vuRg266qr1wsVSSld-3" style="edgeStyle=orthogonalEdgeStyle;rounded=0;orthogonalLoop=1;jettySize=auto;html=1;entryX=0;entryY=0.5;entryDx=0;entryDy=0;entryPerimeter=0;" edge="1" parent="1" source="KAI_ywYx_2HNOmHF93Lu-84" target="GA0vuRg266qr1wsVSSld-2">
          <mxGeometry relative="1" as="geometry" />
        </mxCell>
        <mxCell id="GA0vuRg266qr1wsVSSld-4" value="Membership /&lt;div&gt;Joining VIP&lt;/div&gt;" style="strokeWidth=2;html=1;shape=mxgraph.flowchart.display;whiteSpace=wrap;" vertex="1" parent="1">
          <mxGeometry x="-200" y="670" width="100" height="60" as="geometry" />
        </mxCell>
        <mxCell id="GA0vuRg266qr1wsVSSld-6" style="edgeStyle=orthogonalEdgeStyle;rounded=0;orthogonalLoop=1;jettySize=auto;html=1;entryX=0;entryY=0.5;entryDx=0;entryDy=0;entryPerimeter=0;" edge="1" parent="1" source="KAI_ywYx_2HNOmHF93Lu-84" target="GA0vuRg266qr1wsVSSld-4">
          <mxGeometry relative="1" as="geometry" />
        </mxCell>
        <mxCell id="GA0vuRg266qr1wsVSSld-7" value="About: Display information of the website and the project" style="rounded=1;whiteSpace=wrap;html=1;absoluteArcSize=1;arcSize=14;strokeWidth=2;" vertex="1" parent="1">
          <mxGeometry x="-810" y="312.5" width="100" height="100" as="geometry" />
        </mxCell>
        <mxCell id="GA0vuRg266qr1wsVSSld-12" value="A" style="strokeWidth=2;html=1;shape=mxgraph.flowchart.start_2;whiteSpace=wrap;fillColor=#f8cecc;strokeColor=#b85450;" vertex="1" parent="1">
          <mxGeometry x="-60" y="520" width="40" height="40" as="geometry" />
        </mxCell>
        <mxCell id="GA0vuRg266qr1wsVSSld-13" style="edgeStyle=orthogonalEdgeStyle;rounded=0;orthogonalLoop=1;jettySize=auto;html=1;entryX=0;entryY=0.5;entryDx=0;entryDy=0;entryPerimeter=0;" edge="1" parent="1" source="KAI_ywYx_2HNOmHF93Lu-139" target="GA0vuRg266qr1wsVSSld-12">
          <mxGeometry relative="1" as="geometry" />
        </mxCell>
        <mxCell id="GA0vuRg266qr1wsVSSld-14" value="B" style="strokeWidth=2;html=1;shape=mxgraph.flowchart.start_2;whiteSpace=wrap;fillColor=#d5e8d4;strokeColor=#82b366;" vertex="1" parent="1">
          <mxGeometry x="-60" y="600" width="40" height="40" as="geometry" />
        </mxCell>
        <mxCell id="GA0vuRg266qr1wsVSSld-15" value="C" style="strokeWidth=2;html=1;shape=mxgraph.flowchart.start_2;whiteSpace=wrap;fillColor=#ffe6cc;strokeColor=#d79b00;" vertex="1" parent="1">
          <mxGeometry x="-62.5" y="680" width="40" height="40" as="geometry" />
        </mxCell>
        <mxCell id="GA0vuRg266qr1wsVSSld-16" style="edgeStyle=orthogonalEdgeStyle;rounded=0;orthogonalLoop=1;jettySize=auto;html=1;entryX=0;entryY=0.5;entryDx=0;entryDy=0;entryPerimeter=0;" edge="1" parent="1" source="GA0vuRg266qr1wsVSSld-4" target="GA0vuRg266qr1wsVSSld-15">
          <mxGeometry relative="1" as="geometry" />
        </mxCell>
        <mxCell id="GA0vuRg266qr1wsVSSld-18" value="A" style="strokeWidth=2;html=1;shape=mxgraph.flowchart.start_2;whiteSpace=wrap;fillColor=#f8cecc;strokeColor=#b85450;" vertex="1" parent="1">
          <mxGeometry x="120" y="60" width="40" height="40" as="geometry" />
        </mxCell>
        <mxCell id="GA0vuRg266qr1wsVSSld-23" style="edgeStyle=orthogonalEdgeStyle;rounded=0;orthogonalLoop=1;jettySize=auto;html=1;entryX=0.5;entryY=0;entryDx=0;entryDy=0;" edge="1" parent="1" source="GA0vuRg266qr1wsVSSld-20" target="GA0vuRg266qr1wsVSSld-22">
          <mxGeometry relative="1" as="geometry" />
        </mxCell>
        <mxCell id="GA0vuRg266qr1wsVSSld-30" value="If user is member" style="edgeLabel;html=1;align=center;verticalAlign=middle;resizable=0;points=[];" vertex="1" connectable="0" parent="GA0vuRg266qr1wsVSSld-23">
          <mxGeometry x="-0.3199" relative="1" as="geometry">
            <mxPoint as="offset" />
          </mxGeometry>
        </mxCell>
        <mxCell id="GA0vuRg266qr1wsVSSld-25" style="edgeStyle=orthogonalEdgeStyle;rounded=0;orthogonalLoop=1;jettySize=auto;html=1;entryX=0;entryY=0.5;entryDx=0;entryDy=0;" edge="1" parent="1" source="GA0vuRg266qr1wsVSSld-20" target="GA0vuRg266qr1wsVSSld-24">
          <mxGeometry relative="1" as="geometry" />
        </mxCell>
        <mxCell id="GA0vuRg266qr1wsVSSld-20" value="Check type of user" style="strokeWidth=2;html=1;shape=mxgraph.flowchart.decision;whiteSpace=wrap;" vertex="1" parent="1">
          <mxGeometry x="220" y="30" width="100" height="100" as="geometry" />
        </mxCell>
        <mxCell id="GA0vuRg266qr1wsVSSld-21" style="edgeStyle=orthogonalEdgeStyle;rounded=0;orthogonalLoop=1;jettySize=auto;html=1;entryX=0;entryY=0.5;entryDx=0;entryDy=0;entryPerimeter=0;" edge="1" parent="1" source="GA0vuRg266qr1wsVSSld-18" target="GA0vuRg266qr1wsVSSld-20">
          <mxGeometry relative="1" as="geometry" />
        </mxCell>
        <mxCell id="GA0vuRg266qr1wsVSSld-22" value="View all member&lt;div&gt;in the patreon&lt;/div&gt;" style="rounded=1;whiteSpace=wrap;html=1;absoluteArcSize=1;arcSize=14;strokeWidth=2;" vertex="1" parent="1">
          <mxGeometry x="220" y="203" width="100" height="100" as="geometry" />
        </mxCell>
        <mxCell id="GA0vuRg266qr1wsVSSld-45" style="edgeStyle=orthogonalEdgeStyle;rounded=0;orthogonalLoop=1;jettySize=auto;html=1;entryX=0;entryY=0.5;entryDx=0;entryDy=0;" edge="1" parent="1" source="GA0vuRg266qr1wsVSSld-24" target="GA0vuRg266qr1wsVSSld-44">
          <mxGeometry relative="1" as="geometry" />
        </mxCell>
        <mxCell id="GA0vuRg266qr1wsVSSld-70" style="edgeStyle=orthogonalEdgeStyle;rounded=0;orthogonalLoop=1;jettySize=auto;html=1;entryX=0;entryY=0.5;entryDx=0;entryDy=0;" edge="1" parent="1" source="GA0vuRg266qr1wsVSSld-24" target="GA0vuRg266qr1wsVSSld-68">
          <mxGeometry relative="1" as="geometry" />
        </mxCell>
        <mxCell id="GA0vuRg266qr1wsVSSld-24" value="View all member&lt;div&gt;in the patreon&lt;/div&gt;&lt;div&gt;have able to ban and delete&lt;/div&gt;&lt;div&gt;members&lt;/div&gt;&lt;div&gt;&lt;br&gt;&lt;/div&gt;" style="rounded=1;whiteSpace=wrap;html=1;absoluteArcSize=1;arcSize=14;strokeWidth=2;" vertex="1" parent="1">
          <mxGeometry x="400" y="30" width="100" height="100" as="geometry" />
        </mxCell>
        <mxCell id="GA0vuRg266qr1wsVSSld-26" value="If member&amp;nbsp;&lt;div&gt;is admin&lt;/div&gt;" style="text;html=1;align=center;verticalAlign=middle;resizable=0;points=[];autosize=1;strokeColor=none;fillColor=none;" vertex="1" parent="1">
          <mxGeometry x="315" y="80" width="80" height="40" as="geometry" />
        </mxCell>
        <mxCell id="GA0vuRg266qr1wsVSSld-72" style="edgeStyle=orthogonalEdgeStyle;rounded=0;orthogonalLoop=1;jettySize=auto;html=1;entryX=0.5;entryY=0;entryDx=0;entryDy=0;" edge="1" parent="1" source="GA0vuRg266qr1wsVSSld-32" target="GA0vuRg266qr1wsVSSld-24">
          <mxGeometry relative="1" as="geometry">
            <Array as="points">
              <mxPoint x="760" y="10" />
              <mxPoint x="450" y="10" />
            </Array>
          </mxGeometry>
        </mxCell>
        <mxCell id="GA0vuRg266qr1wsVSSld-73" value="If No" style="edgeLabel;html=1;align=center;verticalAlign=middle;resizable=0;points=[];" vertex="1" connectable="0" parent="GA0vuRg266qr1wsVSSld-72">
          <mxGeometry x="-0.0534" y="1" relative="1" as="geometry">
            <mxPoint as="offset" />
          </mxGeometry>
        </mxCell>
        <mxCell id="GA0vuRg266qr1wsVSSld-170" style="edgeStyle=orthogonalEdgeStyle;rounded=0;orthogonalLoop=1;jettySize=auto;html=1;entryX=1;entryY=0.5;entryDx=0;entryDy=0;" edge="1" parent="1" source="GA0vuRg266qr1wsVSSld-32" target="GA0vuRg266qr1wsVSSld-55">
          <mxGeometry relative="1" as="geometry">
            <Array as="points">
              <mxPoint x="825" y="80" />
              <mxPoint x="825" y="270" />
            </Array>
          </mxGeometry>
        </mxCell>
        <mxCell id="GA0vuRg266qr1wsVSSld-172" value="If Yes" style="edgeLabel;html=1;align=center;verticalAlign=middle;resizable=0;points=[];" vertex="1" connectable="0" parent="GA0vuRg266qr1wsVSSld-170">
          <mxGeometry x="-0.4103" relative="1" as="geometry">
            <mxPoint as="offset" />
          </mxGeometry>
        </mxCell>
        <mxCell id="GA0vuRg266qr1wsVSSld-32" value="Confirmation&lt;div&gt;of banning&lt;div&gt;members&lt;/div&gt;&lt;/div&gt;" style="strokeWidth=2;html=1;shape=mxgraph.flowchart.decision;whiteSpace=wrap;" vertex="1" parent="1">
          <mxGeometry x="700" y="25" width="120" height="110" as="geometry" />
        </mxCell>
        <mxCell id="GA0vuRg266qr1wsVSSld-44" value="Ban Members" style="rounded=1;whiteSpace=wrap;html=1;absoluteArcSize=1;arcSize=14;strokeWidth=2;" vertex="1" parent="1">
          <mxGeometry x="560" y="65" width="100" height="30" as="geometry" />
        </mxCell>
        <mxCell id="GA0vuRg266qr1wsVSSld-46" style="edgeStyle=orthogonalEdgeStyle;rounded=0;orthogonalLoop=1;jettySize=auto;html=1;entryX=0;entryY=0.5;entryDx=0;entryDy=0;entryPerimeter=0;" edge="1" parent="1" source="GA0vuRg266qr1wsVSSld-44" target="GA0vuRg266qr1wsVSSld-32">
          <mxGeometry relative="1" as="geometry" />
        </mxCell>
        <mxCell id="GA0vuRg266qr1wsVSSld-64" value="" style="edgeStyle=orthogonalEdgeStyle;rounded=0;orthogonalLoop=1;jettySize=auto;html=1;" edge="1" parent="1" source="GA0vuRg266qr1wsVSSld-55" target="GA0vuRg266qr1wsVSSld-63">
          <mxGeometry relative="1" as="geometry">
            <Array as="points">
              <mxPoint x="755" y="330" />
              <mxPoint x="755" y="330" />
            </Array>
          </mxGeometry>
        </mxCell>
        <mxCell id="GA0vuRg266qr1wsVSSld-65" value="Update account property" style="edgeLabel;html=1;align=center;verticalAlign=middle;resizable=0;points=[];" vertex="1" connectable="0" parent="GA0vuRg266qr1wsVSSld-64">
          <mxGeometry x="-0.1233" y="-1" relative="1" as="geometry">
            <mxPoint x="6" y="-4" as="offset" />
          </mxGeometry>
        </mxCell>
        <mxCell id="GA0vuRg266qr1wsVSSld-179" value="" style="edgeStyle=orthogonalEdgeStyle;rounded=0;orthogonalLoop=1;jettySize=auto;html=1;" edge="1" parent="1" source="GA0vuRg266qr1wsVSSld-55" target="GA0vuRg266qr1wsVSSld-178">
          <mxGeometry relative="1" as="geometry" />
        </mxCell>
        <mxCell id="GA0vuRg266qr1wsVSSld-55" value="Send Reason" style="rounded=1;whiteSpace=wrap;html=1;absoluteArcSize=1;arcSize=14;strokeWidth=2;strokeColor=default;" vertex="1" parent="1">
          <mxGeometry x="705" y="257.5" width="100" height="25" as="geometry" />
        </mxCell>
        <mxCell id="GA0vuRg266qr1wsVSSld-63" value="DB" style="strokeWidth=2;html=1;shape=mxgraph.flowchart.start_2;whiteSpace=wrap;fillColor=#dae8fc;strokeColor=#6c8ebf;" vertex="1" parent="1">
          <mxGeometry x="735" y="330" width="40" height="40" as="geometry" />
        </mxCell>
        <mxCell id="GA0vuRg266qr1wsVSSld-68" value="Delete / Kick in Patreon" style="rounded=1;whiteSpace=wrap;html=1;absoluteArcSize=1;arcSize=14;strokeWidth=2;" vertex="1" parent="1">
          <mxGeometry x="570" y="187.5" width="100" height="35" as="geometry" />
        </mxCell>
        <mxCell id="GA0vuRg266qr1wsVSSld-69" value="Delete Account /&lt;div&gt;Kick User in Patreon&lt;/div&gt;" style="strokeWidth=2;html=1;shape=mxgraph.flowchart.annotation_1;align=left;pointerEvents=1;" vertex="1" parent="1">
          <mxGeometry x="570" y="150" width="50" height="30" as="geometry" />
        </mxCell>
        <mxCell id="GA0vuRg266qr1wsVSSld-77" style="edgeStyle=orthogonalEdgeStyle;rounded=0;orthogonalLoop=1;jettySize=auto;html=1;entryX=0.5;entryY=1;entryDx=0;entryDy=0;entryPerimeter=0;" edge="1" parent="1" source="GA0vuRg266qr1wsVSSld-68" target="GA0vuRg266qr1wsVSSld-32">
          <mxGeometry relative="1" as="geometry" />
        </mxCell>
        <mxCell id="GA0vuRg266qr1wsVSSld-79" style="edgeStyle=orthogonalEdgeStyle;rounded=0;orthogonalLoop=1;jettySize=auto;html=1;entryX=0;entryY=0.5;entryDx=0;entryDy=0;" edge="1" parent="1" source="GA0vuRg266qr1wsVSSld-78" target="KAI_ywYx_2HNOmHF93Lu-150">
          <mxGeometry relative="1" as="geometry" />
        </mxCell>
        <mxCell id="GA0vuRg266qr1wsVSSld-78" value="B" style="strokeWidth=2;html=1;shape=mxgraph.flowchart.start_2;whiteSpace=wrap;fillColor=#d5e8d4;strokeColor=#82b366;" vertex="1" parent="1">
          <mxGeometry x="-710" y="150" width="40" height="40" as="geometry" />
        </mxCell>
        <mxCell id="GA0vuRg266qr1wsVSSld-87" value="" style="edgeStyle=orthogonalEdgeStyle;rounded=0;orthogonalLoop=1;jettySize=auto;html=1;" edge="1" parent="1" source="GA0vuRg266qr1wsVSSld-80" target="GA0vuRg266qr1wsVSSld-84">
          <mxGeometry relative="1" as="geometry" />
        </mxCell>
        <mxCell id="GA0vuRg266qr1wsVSSld-80" value="C" style="strokeWidth=2;html=1;shape=mxgraph.flowchart.start_2;whiteSpace=wrap;fillColor=#ffe6cc;strokeColor=#d79b00;" vertex="1" parent="1">
          <mxGeometry x="20" y="412.5" width="40" height="40" as="geometry" />
        </mxCell>
        <mxCell id="GA0vuRg266qr1wsVSSld-84" value="Viewing Accept and Term for membership" style="strokeWidth=2;html=1;shape=mxgraph.flowchart.display;whiteSpace=wrap;" vertex="1" parent="1">
          <mxGeometry x="86.66" y="382.5" width="166.67" height="100" as="geometry" />
        </mxCell>
        <mxCell id="GA0vuRg266qr1wsVSSld-94" style="edgeStyle=orthogonalEdgeStyle;rounded=0;orthogonalLoop=1;jettySize=auto;html=1;" edge="1" parent="1" source="GA0vuRg266qr1wsVSSld-88" target="GA0vuRg266qr1wsVSSld-91">
          <mxGeometry relative="1" as="geometry" />
        </mxCell>
        <mxCell id="GA0vuRg266qr1wsVSSld-88" value="Confirmation&lt;div&gt;of&lt;div&gt;Membership&lt;/div&gt;&lt;/div&gt;" style="strokeWidth=2;html=1;shape=mxgraph.flowchart.decision;whiteSpace=wrap;" vertex="1" parent="1">
          <mxGeometry x="193.33000000000004" y="490" width="100" height="100" as="geometry" />
        </mxCell>
        <mxCell id="GA0vuRg266qr1wsVSSld-91" value="Paying with credit&lt;div&gt;card&lt;/div&gt;" style="rounded=1;whiteSpace=wrap;html=1;absoluteArcSize=1;arcSize=14;strokeWidth=2;" vertex="1" parent="1">
          <mxGeometry x="353.33000000000004" y="517.5" width="100" height="45" as="geometry" />
        </mxCell>
        <mxCell id="GA0vuRg266qr1wsVSSld-120" style="edgeStyle=orthogonalEdgeStyle;rounded=0;orthogonalLoop=1;jettySize=auto;html=1;entryX=0;entryY=0.5;entryDx=0;entryDy=0;" edge="1" parent="1" source="GA0vuRg266qr1wsVSSld-97" target="GA0vuRg266qr1wsVSSld-100">
          <mxGeometry relative="1" as="geometry" />
        </mxCell>
        <mxCell id="GA0vuRg266qr1wsVSSld-123" value="Balance" style="edgeLabel;html=1;align=center;verticalAlign=middle;resizable=0;points=[];" vertex="1" connectable="0" parent="GA0vuRg266qr1wsVSSld-120">
          <mxGeometry x="-0.498" y="1" relative="1" as="geometry">
            <mxPoint as="offset" />
          </mxGeometry>
        </mxCell>
        <mxCell id="GA0vuRg266qr1wsVSSld-121" style="edgeStyle=orthogonalEdgeStyle;rounded=0;orthogonalLoop=1;jettySize=auto;html=1;entryX=0;entryY=0.5;entryDx=0;entryDy=0;" edge="1" parent="1" source="GA0vuRg266qr1wsVSSld-97" target="GA0vuRg266qr1wsVSSld-100">
          <mxGeometry relative="1" as="geometry">
            <mxPoint x="523.33" y="680" as="targetPoint" />
            <Array as="points">
              <mxPoint x="403.33000000000004" y="755" />
              <mxPoint x="523.33" y="755" />
              <mxPoint x="523.33" y="685" />
            </Array>
          </mxGeometry>
        </mxCell>
        <mxCell id="GA0vuRg266qr1wsVSSld-122" value="Mininum Payment Due" style="edgeLabel;html=1;align=center;verticalAlign=middle;resizable=0;points=[];" vertex="1" connectable="0" parent="GA0vuRg266qr1wsVSSld-121">
          <mxGeometry x="-0.6312" y="-2" relative="1" as="geometry">
            <mxPoint as="offset" />
          </mxGeometry>
        </mxCell>
        <mxCell id="GA0vuRg266qr1wsVSSld-97" value="What is the amount of payment" style="strokeWidth=2;html=1;shape=mxgraph.flowchart.decision;whiteSpace=wrap;" vertex="1" parent="1">
          <mxGeometry x="353.33000000000004" y="635" width="100" height="100" as="geometry" />
        </mxCell>
        <mxCell id="GA0vuRg266qr1wsVSSld-98" style="edgeStyle=orthogonalEdgeStyle;rounded=0;orthogonalLoop=1;jettySize=auto;html=1;entryX=0.5;entryY=0;entryDx=0;entryDy=0;entryPerimeter=0;" edge="1" parent="1" source="GA0vuRg266qr1wsVSSld-91" target="GA0vuRg266qr1wsVSSld-97">
          <mxGeometry relative="1" as="geometry" />
        </mxCell>
        <mxCell id="GA0vuRg266qr1wsVSSld-117" style="edgeStyle=orthogonalEdgeStyle;rounded=0;orthogonalLoop=1;jettySize=auto;html=1;entryX=0.5;entryY=0;entryDx=0;entryDy=0;" edge="1" parent="1" source="GA0vuRg266qr1wsVSSld-100" target="GA0vuRg266qr1wsVSSld-101">
          <mxGeometry relative="1" as="geometry" />
        </mxCell>
        <mxCell id="GA0vuRg266qr1wsVSSld-100" value="Select The Account for the payment" style="rounded=1;whiteSpace=wrap;html=1;absoluteArcSize=1;arcSize=14;strokeWidth=2;" vertex="1" parent="1">
          <mxGeometry x="568.33" y="635" width="100" height="100" as="geometry" />
        </mxCell>
        <mxCell id="GA0vuRg266qr1wsVSSld-115" style="edgeStyle=orthogonalEdgeStyle;rounded=0;orthogonalLoop=1;jettySize=auto;html=1;" edge="1" parent="1" source="GA0vuRg266qr1wsVSSld-101" target="GA0vuRg266qr1wsVSSld-102">
          <mxGeometry relative="1" as="geometry" />
        </mxCell>
        <mxCell id="GA0vuRg266qr1wsVSSld-101" value="Select the payment post date" style="rounded=1;whiteSpace=wrap;html=1;absoluteArcSize=1;arcSize=14;strokeWidth=2;" vertex="1" parent="1">
          <mxGeometry x="568.33" y="790" width="100" height="100" as="geometry" />
        </mxCell>
        <mxCell id="GA0vuRg266qr1wsVSSld-102" value="Review and then&lt;div&gt;Submiit&lt;/div&gt;" style="rounded=1;whiteSpace=wrap;html=1;absoluteArcSize=1;arcSize=14;strokeWidth=2;" vertex="1" parent="1">
          <mxGeometry x="568.33" y="950" width="100" height="100" as="geometry" />
        </mxCell>
        <mxCell id="GA0vuRg266qr1wsVSSld-108" style="edgeStyle=orthogonalEdgeStyle;rounded=0;orthogonalLoop=1;jettySize=auto;html=1;" edge="1" parent="1" source="GA0vuRg266qr1wsVSSld-104" target="GA0vuRg266qr1wsVSSld-105">
          <mxGeometry relative="1" as="geometry">
            <Array as="points">
              <mxPoint x="243.33000000000004" y="1000" />
            </Array>
          </mxGeometry>
        </mxCell>
        <mxCell id="GA0vuRg266qr1wsVSSld-104" value="Finish" style="strokeWidth=2;html=1;shape=mxgraph.flowchart.terminator;whiteSpace=wrap;" vertex="1" parent="1">
          <mxGeometry x="253.33000000000004" y="970" width="100" height="60" as="geometry" />
        </mxCell>
        <mxCell id="GA0vuRg266qr1wsVSSld-105" value="D" style="strokeWidth=2;html=1;shape=mxgraph.flowchart.start_2;whiteSpace=wrap;fillColor=#e1d5e7;strokeColor=#9673a6;" vertex="1" parent="1">
          <mxGeometry x="223.33000000000004" y="740" width="40" height="40" as="geometry" />
        </mxCell>
        <mxCell id="GA0vuRg266qr1wsVSSld-125" style="edgeStyle=orthogonalEdgeStyle;rounded=0;orthogonalLoop=1;jettySize=auto;html=1;entryX=0.5;entryY=1;entryDx=0;entryDy=0;" edge="1" parent="1" source="GA0vuRg266qr1wsVSSld-124" target="KAI_ywYx_2HNOmHF93Lu-84">
          <mxGeometry relative="1" as="geometry" />
        </mxCell>
        <mxCell id="GA0vuRg266qr1wsVSSld-124" value="D" style="strokeWidth=2;html=1;shape=mxgraph.flowchart.start_2;whiteSpace=wrap;fillColor=#e1d5e7;strokeColor=#9673a6;" vertex="1" parent="1">
          <mxGeometry x="-330" y="660" width="40" height="40" as="geometry" />
        </mxCell>
        <mxCell id="GA0vuRg266qr1wsVSSld-127" value="Confirmation" style="strokeWidth=2;html=1;shape=mxgraph.flowchart.decision;whiteSpace=wrap;" vertex="1" parent="1">
          <mxGeometry x="413.33000000000004" y="950" width="100" height="100" as="geometry" />
        </mxCell>
        <mxCell id="GA0vuRg266qr1wsVSSld-129" style="edgeStyle=orthogonalEdgeStyle;rounded=0;orthogonalLoop=1;jettySize=auto;html=1;exitX=0;exitY=0.5;exitDx=0;exitDy=0;entryX=1;entryY=0.5;entryDx=0;entryDy=0;entryPerimeter=0;" edge="1" parent="1" source="GA0vuRg266qr1wsVSSld-102" target="GA0vuRg266qr1wsVSSld-127">
          <mxGeometry relative="1" as="geometry" />
        </mxCell>
        <mxCell id="GA0vuRg266qr1wsVSSld-130" style="edgeStyle=orthogonalEdgeStyle;rounded=0;orthogonalLoop=1;jettySize=auto;html=1;entryX=1;entryY=0.5;entryDx=0;entryDy=0;entryPerimeter=0;" edge="1" parent="1" source="GA0vuRg266qr1wsVSSld-127" target="GA0vuRg266qr1wsVSSld-104">
          <mxGeometry relative="1" as="geometry" />
        </mxCell>
        <mxCell id="GA0vuRg266qr1wsVSSld-161" value="If Yes" style="text;html=1;align=center;verticalAlign=middle;resizable=0;points=[];autosize=1;strokeColor=none;fillColor=none;" vertex="1" parent="1">
          <mxGeometry x="288.33000000000004" y="518" width="50" height="30" as="geometry" />
        </mxCell>
        <mxCell id="GA0vuRg266qr1wsVSSld-163" style="edgeStyle=orthogonalEdgeStyle;rounded=0;orthogonalLoop=1;jettySize=auto;html=1;entryX=0.5;entryY=0;entryDx=0;entryDy=0;entryPerimeter=0;" edge="1" parent="1" source="GA0vuRg266qr1wsVSSld-162" target="GA0vuRg266qr1wsVSSld-105">
          <mxGeometry relative="1" as="geometry" />
        </mxCell>
        <mxCell id="GA0vuRg266qr1wsVSSld-164" value="" style="edgeStyle=orthogonalEdgeStyle;rounded=0;orthogonalLoop=1;jettySize=auto;html=1;entryX=0.5;entryY=0;entryDx=0;entryDy=0;entryPerimeter=0;" edge="1" parent="1" source="GA0vuRg266qr1wsVSSld-88" target="GA0vuRg266qr1wsVSSld-162">
          <mxGeometry relative="1" as="geometry">
            <mxPoint x="243.33000000000004" y="590" as="sourcePoint" />
            <mxPoint x="243.33000000000004" y="740" as="targetPoint" />
          </mxGeometry>
        </mxCell>
        <mxCell id="GA0vuRg266qr1wsVSSld-162" value="If No" style="text;html=1;align=center;verticalAlign=middle;resizable=0;points=[];autosize=1;strokeColor=none;fillColor=none;" vertex="1" parent="1">
          <mxGeometry x="218.33000000000004" y="630" width="50" height="30" as="geometry" />
        </mxCell>
        <mxCell id="GA0vuRg266qr1wsVSSld-168" style="edgeStyle=orthogonalEdgeStyle;rounded=0;orthogonalLoop=1;jettySize=auto;html=1;entryX=0;entryY=0.5;entryDx=0;entryDy=0;entryPerimeter=0;" edge="1" parent="1" source="GA0vuRg266qr1wsVSSld-84" target="GA0vuRg266qr1wsVSSld-88">
          <mxGeometry relative="1" as="geometry" />
        </mxCell>
        <mxCell id="GA0vuRg266qr1wsVSSld-171" value="&lt;div&gt;&lt;br&gt;&lt;/div&gt;" style="text;html=1;align=center;verticalAlign=middle;resizable=0;points=[];autosize=1;strokeColor=none;fillColor=none;" vertex="1" parent="1">
          <mxGeometry x="790" y="165" width="20" height="30" as="geometry" />
        </mxCell>
        <mxCell id="GA0vuRg266qr1wsVSSld-173" value="DB" style="strokeWidth=2;html=1;shape=mxgraph.flowchart.start_2;whiteSpace=wrap;fillColor=#dae8fc;strokeColor=#6c8ebf;" vertex="1" parent="1">
          <mxGeometry x="443.33" y="860" width="40" height="40" as="geometry" />
        </mxCell>
        <mxCell id="GA0vuRg266qr1wsVSSld-174" style="edgeStyle=orthogonalEdgeStyle;rounded=0;orthogonalLoop=1;jettySize=auto;html=1;entryX=0.5;entryY=1;entryDx=0;entryDy=0;entryPerimeter=0;" edge="1" parent="1" source="GA0vuRg266qr1wsVSSld-127" target="GA0vuRg266qr1wsVSSld-173">
          <mxGeometry relative="1" as="geometry" />
        </mxCell>
        <mxCell id="GA0vuRg266qr1wsVSSld-175" value="&amp;nbsp;Send update at&lt;div&gt;&amp;nbsp;account into account.membership&lt;/div&gt;" style="strokeWidth=2;html=1;shape=mxgraph.flowchart.annotation_1;align=left;pointerEvents=1;" vertex="1" parent="1">
          <mxGeometry x="353.33" y="799.5" width="50" height="53" as="geometry" />
        </mxCell>
        <mxCell id="GA0vuRg266qr1wsVSSld-176" value="&amp;nbsp;Update and Store&lt;div&gt;&amp;nbsp;any data progress&lt;/div&gt;&lt;div&gt;&amp;nbsp;in the website&lt;/div&gt;&lt;div&gt;&amp;nbsp;&lt;/div&gt;&lt;div&gt;&amp;nbsp;Function:&lt;/div&gt;&lt;div&gt;&amp;nbsp;Get and Store&lt;/div&gt;" style="strokeWidth=2;html=1;shape=mxgraph.flowchart.annotation_1;align=left;pointerEvents=1;" vertex="1" parent="1">
          <mxGeometry x="10" y="10" width="50" height="100" as="geometry" />
        </mxCell>
        <mxCell id="GA0vuRg266qr1wsVSSld-178" value="A" style="strokeWidth=2;html=1;shape=mxgraph.flowchart.start_2;whiteSpace=wrap;fillColor=#f8cecc;strokeColor=#b85450;" vertex="1" parent="1">
          <mxGeometry x="599.9999999999999" y="250" width="40" height="40" as="geometry" />
        </mxCell>
        <mxCell id="GA0vuRg266qr1wsVSSld-180" value="&lt;div&gt;&lt;br&gt;&lt;/div&gt;&amp;nbsp;After finishing directly&lt;div&gt;&amp;nbsp;close and go to Member List&lt;/div&gt;&lt;div&gt;&amp;nbsp;&lt;/div&gt;" style="strokeWidth=2;html=1;shape=mxgraph.flowchart.annotation_1;align=left;pointerEvents=1;" vertex="1" parent="1">
          <mxGeometry x="530" y="303" width="50" height="50" as="geometry" />
        </mxCell>
        <mxCell id="GA0vuRg266qr1wsVSSld-181" value="&amp;nbsp;Connectors to other SItes" style="strokeWidth=2;html=1;shape=mxgraph.flowchart.annotation_1;align=left;pointerEvents=1;" vertex="1" parent="1">
          <mxGeometry x="2" y="570" width="50" height="100" as="geometry" />
        </mxCell>
      </root>
    </mxGraphModel>
  </diagram>
</mxfile>
